<svg version="1.1" id="Layer_1" xmlns="http://www.w3.org/2000/svg" xmlns:xlink="http://www.w3.org/1999/xlink" viewBox="0 0 512.001 512.001" xml:space="preserve" fill="#000000"><g id="SVGRepo_bgCarrier" stroke-width="0"></g><g id="SVGRepo_tracerCarrier" stroke-linecap="round" stroke-linejoin="round"></g><g id="SVGRepo_iconCarrier"> <g> <rect x="288.248" y="256.375" style="fill:#ACABB1;" width="149.353" height="247.985"></rect> <rect x="72.36" y="256.375" style="fill:#ACABB1;" width="149.353" height="247.985"></rect> </g> <g> <polygon style="fill:#898890;" points="202.15,256.378 72.36,256.378 72.36,277.133 202.15,277.133 202.15,504.363 221.659,504.363 221.659,277.133 221.659,256.378 "></polygon> <polygon style="fill:#898890;" points="437.758,256.378 307.761,256.378 288.804,256.378 288.251,256.378 288.251,504.363 307.761,504.363 307.761,277.133 437.758,277.133 "></polygon> </g> <g> <path style="fill:#C60024;" d="M321.842,56.121L321.842,56.121c-36.925,0-66.86,29.934-66.86,66.859v66.86h66.86 c36.925,0,66.859-29.934,66.859-66.859l0,0C388.702,86.056,358.767,56.121,321.842,56.121z"></path> <path style="fill:#C60024;" d="M188.123,56.121L188.123,56.121c36.925,0,66.86,29.934,66.86,66.859v66.86h-66.86 c-36.925,0-66.859-29.934-66.859-66.859l0,0C121.264,86.056,151.197,56.121,188.123,56.121z"></path> </g> <g> <polygon style="fill:#57565C;" points="288.251,189.841 288.251,192.595 288.251,256.378 437.604,256.378 450.024,256.378 450.024,189.841 "></polygon> <polygon style="fill:#57565C;" points="221.713,192.595 221.713,189.841 59.94,189.841 59.94,256.378 72.36,256.378 221.713,256.378 "></polygon> </g> <polygon style="fill:#C60024;" points="221.713,189.841 221.713,192.595 221.713,256.378 221.713,504.363 288.251,504.363 288.251,256.378 288.251,192.595 288.251,189.841 "></polygon> <path d="M366.965,182.204c17.837-13.624,29.374-35.096,29.374-59.223c0-41.078-33.419-74.497-74.497-74.497 c-29.306,0-54.704,17.017-66.859,41.683c-12.155-24.666-37.553-41.683-66.859-41.683c-41.078,0-74.497,33.419-74.497,74.497 c0,24.126,11.537,45.599,29.374,59.223H52.303v81.813h12.42v247.985h149.354h15.274h51.263h15.274h149.354V264.016h12.42v-81.813 L366.965,182.204L366.965,182.204z M214.077,496.726H79.997v-232.71h134.079V496.726z M214.077,248.741h-146.5v-51.264h120.546 h25.953L214.077,248.741L214.077,248.741z M214.077,182.204h-25.953c-32.656,0-59.223-26.567-59.223-59.223 s26.567-59.223,59.223-59.223c32.655,0,59.222,26.567,59.222,59.223v59.223h-17.994H214.077z M280.614,248.741v15.274v232.71 h-51.263v-232.71v-15.274v-51.264h17.994h15.274h17.994V248.741z M280.614,182.204H262.62v-59.223 c0-32.656,26.567-59.223,59.222-59.223c32.656,0,59.223,26.567,59.223,59.223s-26.567,59.223-59.223,59.223h-25.953H280.614z M429.967,496.726H295.889v-232.71h134.079v232.71H429.967z M442.388,248.741h-146.5v-51.264h25.953h120.546L442.388,248.741 L442.388,248.741z"></path> <g> <rect x="405.413" y="429.271" style="fill:#FFFFFF;" width="15.274" height="16.936"></rect> <polygon style="fill:#FFFFFF;" points="420.683,490.309 376.477,490.309 376.477,475.035 405.409,475.035 405.409,456.497 420.683,456.497 "></polygon> <rect x="88.755" y="332.442" style="fill:#FFFFFF;" width="15.274" height="71.596"></rect> <rect x="88.755" y="297.188" style="fill:#FFFFFF;" width="15.274" height="25.099"></rect> </g> <g> <polygon style="fill:#D80029;" points="451.082,129.97 432.621,111.507 443.422,100.706 451.082,108.368 458.665,100.785 469.464,111.586 "></polygon> <polygon style="fill:#D80029;" points="60.998,89.919 42.537,71.458 53.336,60.658 60.998,68.318 68.579,60.736 79.38,71.536 "></polygon> <polygon style="fill:#D80029;" points="234.775,29.263 216.313,10.8 227.114,0 234.775,7.661 242.358,0.079 253.158,10.879 "></polygon> </g> <g> <path style="fill:#820018;" d="M321.842,87.912L321.842,87.912c-19.368,0-35.069,15.701-35.069,35.069v35.069h35.069 c19.368,0,35.069-15.701,35.069-35.069l0,0C356.911,103.613,341.21,87.912,321.842,87.912z"></path> <path style="fill:#820018;" d="M188.123,87.912L188.123,87.912c19.368,0,35.069,15.701,35.069,35.069v35.069h-35.069 c-19.368,0-35.069-15.701-35.069-35.069l0,0C153.054,103.613,168.755,87.912,188.123,87.912z"></path> </g> </g></svg>